<svg width="26" height="26" viewBox="0 0 26 26" fill="none" xmlns="http://www.w3.org/2000/svg">
<path d="M20 22.3334C20 20.4769 19.2625 18.6964 17.9498 17.3836C16.637 16.0709 14.8565 15.3334 13 15.3334M13 15.3334C11.1435 15.3334 9.36302 16.0709 8.05026 17.3836C6.73751 18.6964 6.00001 20.4769 6.00001 22.3334M13 15.3334C15.5773 15.3334 17.6667 13.244 17.6667 10.6667C17.6667 8.08938 15.5773 6.00004 13 6.00004C10.4227 6.00004 8.33334 8.08938 8.33334 10.6667C8.33334 13.244 10.4227 15.3334 13 15.3334ZM24.6667 13C24.6667 19.4434 19.4433 24.6667 13 24.6667C6.55669 24.6667 1.33334 19.4434 1.33334 13C1.33334 6.55672 6.55669 1.33337 13 1.33337C19.4433 1.33337 24.6667 6.55672 24.6667 13Z" stroke="#4D5357" stroke-width="2" stroke-linecap="round" stroke-linejoin="round"/>
</svg>
