<svg width="20" height="20" viewBox="0 0 20 20" fill="none" xmlns="http://www.w3.org/2000/svg">
<path d="M9.70833 4.66667V10.1667H5.58333M9.54171 4.49998V9.99998H5.41671M19.3333 10.1667C19.3333 15.2293 15.2293 19.3333 10.1667 19.3333C5.10406 19.3333 1 15.2293 1 10.1667C1 5.10406 5.10406 1 10.1667 1C15.2293 1 19.3333 5.10406 19.3333 10.1667ZM19.1667 9.99998C19.1667 15.0626 15.0627 19.1666 10 19.1666C4.93743 19.1666 0.833374 15.0626 0.833374 9.99998C0.833374 4.93737 4.93743 0.833313 10 0.833313C15.0627 0.833313 19.1667 4.93737 19.1667 9.99998Z" stroke="#323538" stroke-linecap="round" stroke-linejoin="round"/>
</svg>
