<svg width="25" height="22" viewBox="0 0 25 22" fill="none" xmlns="http://www.w3.org/2000/svg">
<path d="M10.25 18.1667H3.83333C3.21449 18.1667 2.621 17.9209 2.18342 17.4833C1.74583 17.0457 1.5 16.4522 1.5 15.8334V4.16671M1.5 4.16671C1.5 3.54787 1.74583 2.95438 2.18342 2.51679C2.621 2.07921 3.21449 1.83337 3.83333 1.83337H20.1667C20.7855 1.83337 21.379 2.07921 21.8166 2.51679C22.2542 2.95438 22.5 3.54787 22.5 4.16671M1.5 4.16671L12 11.1667L22.5 4.16671M22.5 4.16671V8.83337M19.057 20.1198L22.9654 16.2884C23.2051 16.0558 23.3957 15.7776 23.5261 15.4701C23.6564 15.1627 23.7239 14.8322 23.7244 14.4982C23.725 14.1643 23.6586 13.8336 23.5292 13.5257C23.3999 13.2178 23.2101 12.9389 22.9712 12.7056C22.4837 12.2288 21.8293 11.9613 21.1474 11.96C20.4655 11.9587 19.8101 12.2237 19.3207 12.6986L19.0594 12.9553L18.7992 12.6986C18.3118 12.2222 17.6576 11.9548 16.976 11.9535C16.2944 11.9522 15.6392 12.217 15.1499 12.6916C14.9101 12.9241 14.7194 13.2023 14.5889 13.5097C14.4585 13.8171 14.3909 14.1476 14.3902 14.4815C14.3896 14.8155 14.4559 15.1462 14.5851 15.4541C14.7144 15.7621 14.904 16.041 15.1429 16.2744L19.057 20.1198Z" stroke="#4D5357" stroke-width="2" stroke-linecap="round" stroke-linejoin="round"/>
</svg>
