<svg width="76" height="94" viewBox="0 0 76 94" fill="none" xmlns="http://www.w3.org/2000/svg">
<path d="M49.4584 1.16663H10.5C8.06889 1.16663 5.73731 2.1324 4.01823 3.85148C2.29914 5.57056 1.33337 7.90214 1.33337 10.3333V83.6666C1.33337 86.0978 2.29914 88.4293 4.01823 90.1484C5.73731 91.8675 8.06889 92.8333 10.5 92.8333H65.5C67.9312 92.8333 70.2628 91.8675 71.9819 90.1484C73.7009 88.4293 74.6667 86.0978 74.6667 83.6666V26.375L49.4584 1.16663Z" fill="#D9D9D9"/>
<path d="M47.1667 1.16663V28.6666H74.6667" fill="#D9D9D9"/>
<path d="M28.8334 51.5833L19.6667 60.75L28.8334 69.9166" fill="#D9D9D9"/>
<path d="M47.1667 69.9166L56.3334 60.75L47.1667 51.5833" fill="#D9D9D9"/>
<path d="M47.1667 1.16663V28.6666H74.6667M28.8334 51.5833L19.6667 60.75L28.8334 69.9166M47.1667 69.9166L56.3334 60.75L47.1667 51.5833M49.4584 1.16663H10.5C8.06889 1.16663 5.73731 2.1324 4.01823 3.85148C2.29914 5.57056 1.33337 7.90214 1.33337 10.3333V83.6666C1.33337 86.0978 2.29914 88.4293 4.01823 90.1484C5.73731 91.8675 8.06889 92.8333 10.5 92.8333H65.5C67.9312 92.8333 70.2628 91.8675 71.9819 90.1484C73.7009 88.4293 74.6667 86.0978 74.6667 83.6666V26.375L49.4584 1.16663Z" stroke="#323538" stroke-width="2" stroke-linecap="round" stroke-linejoin="round"/>
</svg>
